<svg xmlns="http://www.w3.org/2000/svg" width="12" height="19" viewBox="0 0 12 19" fill="none">
<path d="M1.99994 18.9999C1.86833 19.0007 1.73787 18.9755 1.61603 18.9257C1.4942 18.8759 1.38338 18.8026 1.28994 18.7099C1.19621 18.617 1.12182 18.5064 1.07105 18.3845C1.02028 18.2627 0.994141 18.132 0.994141 17.9999C0.994141 17.8679 1.02028 17.7372 1.07105 17.6154C1.12182 17.4935 1.19621 17.3829 1.28994 17.2899L8.58994 9.99994L1.28994 2.70994C1.10164 2.52164 0.995848 2.26624 0.995848 1.99994C0.995848 1.86808 1.02182 1.73751 1.07228 1.61569C1.12274 1.49387 1.1967 1.38318 1.28994 1.28994C1.38318 1.1967 1.49387 1.12274 1.61569 1.07228C1.73751 1.02182 1.86808 0.99585 1.99994 0.99585C2.26624 0.99585 2.52164 1.10164 2.70994 1.28994L10.7099 9.28994C10.8037 9.3829 10.8781 9.4935 10.9288 9.61536C10.9796 9.73722 11.0057 9.86793 11.0057 9.99994C11.0057 10.132 10.9796 10.2627 10.9288 10.3845C10.8781 10.5064 10.8037 10.617 10.7099 10.7099L2.70994 18.7099C2.6165 18.8026 2.50568 18.8759 2.38385 18.9257C2.26201 18.9755 2.13155 19.0007 1.99994 18.9999Z" fill="#F8B133"/>
</svg>