<svg xmlns="http://www.w3.org/2000/svg" width="24" height="24" viewBox="0 0 24 24" fill="none">
<path d="M15.5002 12.0001C15.5009 12.1317 15.4757 12.2621 15.426 12.384C15.3762 12.5058 15.3029 12.6166 15.2102 12.7101L11.2102 16.7101C11.0219 16.8984 10.7665 17.0042 10.5002 17.0042C10.2339 17.0042 9.97849 16.8984 9.79018 16.7101C9.60188 16.5218 9.49609 16.2664 9.49609 16.0001C9.49609 15.7338 9.60188 15.4784 9.79018 15.2901L13.1002 12.0001L9.92019 8.70006C9.8179 8.60807 9.73569 8.49596 9.6787 8.37075C9.62171 8.24553 9.59118 8.10991 9.589 7.97236C9.58682 7.8348 9.61304 7.69828 9.66603 7.57132C9.71903 7.44437 9.79764 7.32971 9.89697 7.23453C9.99629 7.13934 10.1142 7.06567 10.2433 7.01813C10.3724 6.97059 10.5099 6.95019 10.6472 6.95822C10.7846 6.96625 10.9188 7.00253 11.0414 7.06479C11.1641 7.12705 11.2726 7.21395 11.3602 7.32006L15.2202 11.3201C15.3965 11.5029 15.4966 11.7461 15.5002 12.0001Z" fill="#F8B133"/>
</svg>