<svg xmlns="http://www.w3.org/2000/svg" id="Capa_1" height="512" viewBox="0 0 512 512" width="512"><g><path d="m355.018 122.039c86.376.178 156.944 70.866 156.982 157.242.017 38.604-13.874 73.961-36.935 101.342-9.773 11.603-11.753 27.888-5.065 41.504l17.123 34.858c1.407 2.863-1.411 5.973-4.399 4.855l-72.803-27.25c-6.879-2.575-14.354-3.12-21.53-1.552-11.818 2.583-24.132 3.84-36.781 3.598-85.417-1.637-154.363-72.086-154.238-157.519.128-86.884 70.69-157.257 157.646-157.078z" fill="#ffe07d"></path><g><path d="m470 422.127c-6.689-13.616-4.708-29.901 5.065-41.504 23.06-27.381 36.951-62.738 36.935-101.342-.038-86.376-70.607-157.064-156.982-157.242-5.787-.012-11.499.298-17.125.895 78.725 8.423 140.532 75.513 140.568 156.347.017 38.604-13.874 73.961-36.934 101.342-9.773 11.603-11.754 27.888-5.065 41.504l13.481 27.442 32.783 12.271c2.988 1.118 5.805-1.991 4.399-4.855z" fill="#ffd064"></path></g><g><g><path d="m328.835 293.105c-4.268 0-7.726-3.459-7.726-7.726v-12.052c0-4.268 3.459-7.726 7.726-7.726s7.726 3.459 7.726 7.726v12.052c0 4.267-3.459 7.726-7.726 7.726z" fill="#e49542"></path></g><g><path d="m380.538 293.105c-4.268 0-7.726-3.459-7.726-7.726v-12.052c0-4.268 3.459-7.726 7.726-7.726 4.268 0 7.726 3.459 7.726 7.726v12.052c0 4.267-3.459 7.726-7.726 7.726z" fill="#e49542"></path></g><g><path d="m432.242 293.105c-4.268 0-7.726-3.459-7.726-7.726v-12.052c0-4.268 3.459-7.726 7.726-7.726s7.726 3.459 7.726 7.726v12.052c0 4.267-3.458 7.726-7.726 7.726z" fill="#e49542"></path></g></g><path d="m156.982 49.927c-86.376.178-156.944 70.866-156.982 157.242-.017 38.604 13.874 73.961 36.935 101.342 9.773 11.603 11.753 27.888 5.065 41.504l-17.123 34.858c-1.407 2.863 1.411 5.973 4.399 4.855l72.803-27.25c6.879-2.575 14.354-3.12 21.53-1.552 11.818 2.583 24.132 3.84 36.781 3.598 85.417-1.637 154.363-72.086 154.238-157.519-.128-86.884-70.69-157.258-157.646-157.078z" fill="#9dc6fb"></path><g><path d="m156.982 49.927c-5.965.012-11.851.373-17.647 1.039 78.289 8.96 139.117 75.378 139.235 156.039.117 80.379-60.907 147.485-139.264 156.509 6.903.789 13.937 1.147 21.083 1.01 85.417-1.638 154.362-72.086 154.238-157.519-.127-86.884-70.689-157.258-157.645-157.078z" fill="#80b4fb"></path></g><path d="m151.023 176.052-41.149-41.149c-1.84-1.84-4.823-1.84-6.662 0l-9.253 9.253c-13.816 13.816-13.816 36.216 0 50.032l76.408 76.408c13.816 13.816 36.216 13.816 50.032 0l9.253-9.253c1.84-1.84 1.84-4.823 0-6.662l-41.149-41.149c-1.84-1.84-4.823-1.84-6.662 0l-8.293 8.294c-3.963 3.963-10.388 3.963-14.35 0l-16.466-16.466c-3.963-3.963-3.963-10.388 0-14.35l8.293-8.293c1.837-1.843 1.837-4.826-.002-6.665z" fill="#26457d"></path></g></svg>