<svg xmlns="http://www.w3.org/2000/svg" xmlns:xlink="http://www.w3.org/1999/xlink" id="Layer_1" x="0px" y="0px" viewBox="0 0 512 512" style="enable-background:new 0 0 512 512;" xml:space="preserve">
<style type="text/css">.st0{fill:#FFCF35;}
	.st1{fill:#FFD863;}
	.st2{fill:#FFB344;}
	.st3{fill:#FFFFFF;}
	.st4{fill:#E0E0E0;}
	.st5{fill:#FF9451;}
	.st6{fill:#F7674F;}
</style>
<path class="st0" d="M308.3,443.6H256v-16.5h52.3c45.5,0,82.6-37,82.6-82.6v-100h16.5v100C407.4,399.2,362.9,443.6,308.3,443.6z"></path>
<path class="st1" d="M405.3,261.9h-12.4v-83.3C392.9,113.2,331.5,60,256,60s-136.9,53.2-136.9,118.7v83.3h-12.4v-83.3  c0-72.3,67-131.1,149.3-131.1s149.3,58.8,149.3,131.1L405.3,261.9L405.3,261.9z"></path>
<path class="st0" d="M256,47.6V60c75.5,0,136.9,53.2,136.9,118.7v83.3h12.4v-83.3C405.3,106.4,338.3,47.6,256,47.6z"></path>
<path class="st2" d="M383.2,188.2h10c28,0,50.7,22.7,50.7,50.7v11.4c0,28-22.7,50.7-50.7,50.7h-10V188.2z"></path>
<path class="st0" d="M128.8,188.2h-10c-28,0-50.7,22.7-50.7,50.7v11.4c0,28,22.7,50.7,50.7,50.7h10V188.2z"></path>
<path class="st3" d="M402,226c0,80.6-64.7,194.7-144.5,194.7S112.9,306.7,112.9,226S177.6,80,257.4,80S402,145.4,402,226z"></path>
<path class="st4" d="M257.4,80c-0.5,0-1,0-1.4,0v340.6c0.5,0,1,0,1.4,0c79.8,0,144.5-114,144.5-194.7S337.3,80,257.4,80z"></path>
<path class="st5" d="M257.4,80c-79.8,0-144.5,65.4-144.5,146c0,24.9,6.2,53.1,17.1,80l1,1.5c142.7-39.4,174.6-130.2,174.6-130.2  s24.9,44.6,90.7,93.2c3.7-15.3,5.7-30.4,5.7-44.5C402,145.4,337.3,80,257.4,80z"></path>
<path class="st6" d="M257.4,80c-0.5,0-1,0-1.4,0v163c38.5-34,49.6-65.7,49.6-65.7s24.9,44.6,90.7,93.2c3.7-15.3,5.7-30.4,5.7-44.5  C402,145.4,337.3,80,257.4,80z"></path>
<path class="st5" d="M290.6,459.2h-43.1c-7.3,0-13.1-5.9-13.1-13.1v-21.4c0-7.3,5.9-13.1,13.1-13.1h43.1c7.3,0,13.1,5.9,13.1,13.1  v21.4C303.7,453.4,297.8,459.2,290.6,459.2z"></path>
<path class="st6" d="M290.6,411.5H256v47.7h34.6c7.3,0,13.1-5.9,13.1-13.1v-21.4C303.7,417.4,297.8,411.5,290.6,411.5z"></path>
</svg>