 <svg
                                        xmlns="http://www.w3.org/2000/svg"
                                        height="50"
                                        xmlns:xlink="http://www.w3.org/1999/xlink"
                                        id="Layer_1"
                                        x="0px"
                                        y="0px"
                                        viewBox="0 0 512 512"
                                        style="enable-background: new 0 0 512 512"
                                        xml:space="preserve"
                                    >
                                        <style type="text/css">
                                            .st0 {
                                                fill: #eeeeee;
                                            }
                                            .st1 {
                                                fill: #bdbdbd;
                                            }
                                            .st2 {
                                                fill: #ffffff;
                                            }
                                            .st3 {
                                                fill: #1fd4af;
                                            }
                                            .st4 {
                                                fill: #fbc02d;
                                            }
                                            .st5 {
                                                fill: #f9a825;
                                            }
                                        </style>
                                        <g>
                                            <g>
                                                <g>
                                                    <g>
                                                        <g>
                                                            <path
                                                                class="st0"
                                                                d="M381.8,30.6c0-12.1-9.8-21.9-21.9-21.9H136.8c-12.1,0-21.9,9.8-21.9,21.9v407.8h266.9V30.6z"
                                                            ></path>
                                                        </g>
                                                        <g>
                                                            <path
                                                                class="st1"
                                                                d="M114.9,438.4v43c0,12.1,9.8,21.9,21.9,21.9h223.2c12.1,0,21.9-9.8,21.9-21.9v-43H114.9z"
                                                            ></path>
                                                        </g>
                                                    </g>
                                                    <g>
                                                        <path
                                                            class="st2"
                                                            d="M256.6,480h-16.5c-4.8,0-8.8-3.9-8.8-8.8s3.9-8.8,8.8-8.8h16.5c4.8,0,8.8,3.9,8.8,8.8S261.4,480,256.6,480z      "
                                                        ></path>
                                                    </g>
                                                </g>
                                                <g>
                                                    <g>
                                                        <path
                                                            class="st3"
                                                            d="M472.6,253.8H226.5c-12.1,0-21.9-9.8-21.9-21.9V74.4c0-12.1,9.8-21.9,21.9-21.9h246.2      c12.1,0,21.9,9.8,21.9,21.9v157.5C494.5,244,484.7,253.8,472.6,253.8z"
                                                        ></path>
                                                    </g>
                                                    <g>
                                                        <g>
                                                            <path class="st2" d="M204.6,97.7h289.9v17.5H204.6V97.7z"></path>
                                                        </g>
                                                    </g>
                                                    <g>
                                                        <path
                                                            class="st2"
                                                            d="M445.2,164.1H338.1c-4.8,0-8.8-3.9-8.8-8.8c0-4.8,3.9-8.8,8.8-8.8h107.2c4.8,0,8.8,3.9,8.8,8.8      C454,160.2,450.1,164.1,445.2,164.1z"
                                                        ></path>
                                                    </g>
                                                    <g>
                                                        <path
                                                            class="st2"
                                                            d="M445.2,212.2H338.1c-4.8,0-8.8-3.9-8.8-8.8c0-4.8,3.9-8.8,8.8-8.8h107.2c4.8,0,8.8,3.9,8.8,8.8      C454,208.3,450.1,212.2,445.2,212.2z"
                                                        ></path>
                                                    </g>
                                                </g>
                                                <g>
                                                    <g>
                                                        <circle class="st4" cx="114.9" cy="369" r="84.2"></circle>
                                                    </g>
                                                    <g>
                                                        <path
                                                            class="st5"
                                                            d="M54.7,369c0-42.4,31.4-77.5,72.2-83.4c-3.9-0.6-7.9-0.9-12-0.9c-46.5,0-84.2,37.7-84.2,84.2      s37.7,84.2,84.2,84.2c4.1,0,8.1-0.3,12-0.9C86.1,446.6,54.7,411.5,54.7,369L54.7,369z"
                                                        ></path>
                                                    </g>
                                                    <g>
                                                        <path
                                                            class="st2"
                                                            d="M120.6,359.4c-11.7-4.9-15.1-7.7-15.1-12.7c0-4.1,3-8.5,11.3-8.5c7.1,0.5,13.5,2.6,19.3,6.3l5.9-15.7      c-5.7-3.6-12-5.8-18.9-6.6v-13.7h-15.5v14.7c-13,3.2-21,12.9-21,25.3c0,15.3,12.1,22.2,25.1,27.3c9.6,3.9,13.6,7.8,13.6,13.4      c0,6.1-5.3,10.2-13.1,10.2c-8.2-0.5-15.5-3.2-21.8-7.9l-5.7,16c6.3,4.8,13.6,7.5,22,8.1v14.3h15.7v-15.1      c13.4-3.3,22-13.7,22-26.5C144.4,374.7,137.3,366.2,120.6,359.4z"
                                                        ></path>
                                                    </g>
                                                </g>
                                            </g>
                                        </g>
                                    </svg>