<svg xmlns:cc="http://creativecommons.org/ns#" xmlns:dc="http://purl.org/dc/elements/1.1/" xmlns:inkscape="http://www.inkscape.org/namespaces/inkscape" xmlns:rdf="http://www.w3.org/1999/02/22-rdf-syntax-ns#" xmlns:sodipodi="http://sodipodi.sourceforge.net/DTD/sodipodi-0.dtd" xmlns:svg="http://www.w3.org/2000/svg" xmlns="http://www.w3.org/2000/svg" xmlns:xlink="http://www.w3.org/1999/xlink" id="svg2" inkscape:version="0.92.2 5c3e80d, 2017-08-06" sodipodi:docname="logo douanes.svg" x="0px" y="0px" viewBox="0 0 180.4 220.9" style="enable-background:new 0 0 180.4 220.9;" xml:space="preserve">
<style type="text/css">
	.st0{fill:#1D4E9E;stroke:#FFFFFF;stroke-width:0.5348;stroke-miterlimit:10;}
	.st1{clip-path:url(#SVGID_2_);}
	.st2{fill:#FFFFFF;}
	.st3{fill:#ED1639;}
</style>

<path id="path282" inkscape:connector-curvature="0" class="st0" d="M177.7,218.2H2.7V2.7h175V218.2z"></path>
<g id="g284">
	<g>
		<defs>
			<rect id="SVGID_1_" x="2.7" width="177.7" height="220.9"></rect>
		</defs>
		<clipPath id="SVGID_2_">
			<use xlink:href="#SVGID_1_" style="overflow:visible;"></use>
		</clipPath>
		<g id="g286" class="st1">
			<g id="g292" transform="translate(251.872,78.1519)">
				<path id="path294" inkscape:connector-curvature="0" class="st2" d="M-233.4,33.2c0-2.6-0.3-3-1.1-3h-0.7      c-0.5,0-0.7-0.2-0.7-0.5v-0.2c0-0.2,0.1-0.4,0.2-0.5c0.9-0.6,6.6-1,8-1c6.8,0,13,2.9,13,12.4c0,7.9-5.6,11.8-11.5,11.8      c-2.4,0-4.8-0.2-5.9-0.2c-1.1,0-2.6,0.2-3.3,0.2c-0.3,0-0.5,0-0.5-0.3v-0.6c0-0.3,0.1-0.4,0.4-0.4c1.5,0,2.2-0.6,2.2-2.9V33.2z       M-229.8,47.6c0,2.3,1.5,3,3.6,3c4.7,0,7.5-4.8,7.5-10.3c0-5.9-2.6-10.9-7.8-10.9c-1.6,0-3.3,0.1-3.3,2.4V47.6z"></path>
			</g>
			<g id="g296" transform="translate(264.6972,79.3729)">
				<path id="path298" inkscape:connector-curvature="0" class="st2" d="M-214.3,29c6,0,11.1,4.3,11.1,10.7      c0,7.3-5.3,11.8-11.7,11.8c-5.6,0-10.4-4.3-10.4-10.9C-225.2,33.6-220.3,29-214.3,29 M-213.8,49.9c4.4,0,6.7-3.8,6.7-8.3      c0-5.3-2-11.1-7.5-11.1c-5,0-6.6,3.8-6.6,8.7C-221.2,43.9-218.7,49.9-213.8,49.9"></path>
			</g>
			<g id="g300" transform="translate(272.4831,73.2384)">
				<path id="path302" inkscape:connector-curvature="0" class="st2" d="M-202.6,50.4c0,3.7,1.9,4.9,4.9,4.9c3.9,0,6.3-1.6,6.3-6.1      V39c0-1.9-0.6-2.2-2.2-2.2c-0.2,0-0.4-0.1-0.4-0.3v-0.6c0-0.2,0.1-0.3,0.2-0.3c0.9,0,1.6,0.2,2.8,0.2c1.7,0,2.5-0.2,3.5-0.2      c0.1,0,0.2,0,0.2,0.2v0.6c0,0.4,0,0.4-0.4,0.4c-2.1,0-2.2,0.7-2.2,2.7v9c0,2.6-0.2,4.9-2.1,6.7c-1.6,1.5-3.9,2.3-6.1,2.3      c-4.6,0-8.4-1.4-8.4-7.1V38.6c0-1.7-0.7-1.8-2.2-1.8c-0.1,0-0.3,0-0.3-0.2v-0.7c0-0.2,0.1-0.3,0.4-0.3c1.3,0,3.5,0.2,4.8,0.2      c1.4,0,2.2-0.2,3.5-0.2c0.2,0,0.2,0.1,0.2,0.3v0.7c0,0.2-0.1,0.2-0.4,0.2c-1.6,0-2.2,0.3-2.2,2.2V50.4z"></path>
			</g>
			<g id="g304" transform="translate(281.6423,73.8973)">
				<path id="path306" inkscape:connector-curvature="0" class="st2" d="M-188.9,48.1c-0.1,0-0.2,0-0.3,0.1l-1,3.2      c-0.3,1-0.6,2-0.6,2.6c0,1,0.7,1.2,2,1.2c0.3,0,0.3,0.2,0.3,0.4v0.6c0,0.2-0.1,0.2-0.5,0.2c-0.9,0-1.9-0.1-3-0.1      c-1.8,0-2.5,0.1-3.1,0.1c-0.1,0-0.2-0.1-0.2-0.2v-0.6c0-0.2,0.1-0.4,0.4-0.4c1.1,0,1.8-0.3,2.3-1.6c0.6-1.6,1.1-3.3,1.7-4.9      l2.9-9.4c0.2-0.8,0.5-1.7,0.8-2.9c0.2-0.5,0.4-0.8,1.4-1.6c0.6-0.4,1-0.8,1.1-0.8c0.1,0,0.2,0.4,0.3,0.6l6.6,17.9      c0.8,2.2,1,2.5,2,2.7c0.8,0.2,0.9,0.2,0.9,0.4V56c0,0.1,0,0.4-0.3,0.4c-0.8,0-2.4-0.1-3.6-0.1c-1.6,0-3,0.1-4.3,0.1      c-0.1,0-0.2,0-0.2-0.1v-0.7c0-0.3,0.2-0.4,0.4-0.4c1.4,0,1.8-0.6,1.8-1.2c0-0.7-1.6-4.5-2.1-5.9H-188.9z M-184,46.5l-2.6-6.9      h-0.1l-2.1,6.9H-184z"></path>
			</g>
			<g id="g308" transform="translate(291.5773,77.7594)">
				<path id="path310" inkscape:connector-curvature="0" class="st2" d="M-174.1,34.6c1,1.3,1.9,2.6,3,3.8l5.9,7.6      c0.2,0.2,0.3,0.4,0.4,0.4c0.1,0,0.1-1.4,0.1-2.1v-9.4c0-2-0.1-2.6-2.1-2.6c-0.2,0-0.5-0.1-0.5-0.4v-0.5c0-0.3,0.2-0.3,0.4-0.3      c1.4,0,2.7,0.2,3.6,0.2c1.2,0,1.9-0.2,2.6-0.2c0.2,0,0.3,0,0.3,0.3V32c0,0.2-0.2,0.3-1,0.3c-1.4,0.1-1.8,0.7-1.7,3.7v11.7      c0,2.3,0,4.1,0,5.1c0,0.2,0,0.2-0.3,0.2c-1,0-1.1,0-1.5-0.4c-0.8-0.9-1.2-1.5-1.7-2l-11.2-14.3c-0.4-0.5-0.6-0.8-0.7-0.8      c-0.2,0-0.1,1.2-0.1,1.4v11c0,3.2,0.5,3.4,2.2,3.4c0.3,0,0.5,0,0.5,0.3v0.7c0,0.2-0.1,0.3-0.4,0.3c-1.2,0-1.6-0.1-2.7-0.1      c-1,0-2.3,0.1-3.6,0.1c-0.4,0-0.5-0.1-0.5-0.4v-0.5c0-0.2,0.1-0.3,0.3-0.3c1.6,0,2.6-0.1,2.6-3.2V37.5c0-5-0.4-5.2-3.1-5.2      c-0.2,0-0.3-0.1-0.3-0.3v-0.6c0-0.2,0.1-0.3,0.3-0.3c1,0,1.9,0.2,2.9,0.2c1.2,0,2.3-0.2,3.5-0.2c0.4,0,0.5,0.5,0.7,0.7      L-174.1,34.6z"></path>
			</g>
			<g id="g312" transform="translate(300.1936,72.0764)">
				<path id="path314" inkscape:connector-curvature="0" class="st2" d="M-161.2,54.4c0,1.7,0.3,2.4,2.2,2.4h3.8      c1.2,0,1.5-0.5,2-1.5l0.9-1.4c0.2-0.4,0.4-0.5,0.5-0.5c0.2,0,1,0.1,1,0.5c0,0.2,0,0.3-0.1,0.5c-0.3,1.2-0.7,2.3-1.1,3.9      c-1.7,0-3.4,0-5.1-0.1c-1.7,0-3.4-0.1-5.1-0.1c-0.8,0-1.7,0-2.5,0.1c-0.8,0.1-1.7,0.1-2.5,0.1c-0.1,0-0.2-0.1-0.2-0.2v-0.5      c0-0.3,0.2-0.4,0.9-0.4c0.8-0.1,1.6-0.4,1.6-2.4V42.5v-3c0-1.6-1.1-1.6-2-1.6c-0.3,0-0.5,0-0.5-0.3V37c0-0.3,0.2-0.3,0.5-0.3      c1.1,0,3.3,0.1,4.7,0.2c3,0,5.9-0.2,8.9-0.2c0.2,0,0.2,0.2,0.2,0.4c0,0.7,0,1.4,0,2c0,0.6,0,1.3,0,1.9c0,0.2-0.1,0.3-0.4,0.3      h-0.6c-0.1,0-0.2-0.2-0.2-0.6c-0.2-2.3-0.9-2.7-2.7-2.7h-2.6c-1.5,0-1.8,0.2-1.8,2.6v5.3h1.9c2,0,3,0.1,3.4-2.4      c0-0.2,0.1-0.2,0.2-0.2h0.5c0.2,0,0.3,0.1,0.3,0.2c0,1.1,0,2.3,0,3.4c0,0.8,0,1.8,0,2.7c0,0.3-0.1,0.5-0.2,0.5h-0.6      c-0.2,0-0.2-0.1-0.2-0.2c0-0.5,0-1.1-0.2-1.8c-0.3-0.9-1.1-0.8-2.3-0.8h-2.7V54.4z"></path>
			</g>
			<g id="g316" transform="translate(305.82,72.5043)">
				<path id="path318" inkscape:connector-curvature="0" class="st2" d="M-152.8,52.9c0.7,1.9,1.7,4,4.5,4c2.2,0,4-1.2,4-3.5      c0-5.3-9.5-4-9.5-11.1c0-4.2,3-6.5,6.5-6.5c1.8,0,4.2,0.9,4.7,1.7v3.8h-1.2c-0.4-2.4-1.5-4.1-3.7-4.1c-1.9,0-3.4,1.1-3.4,3.3      c0,5.2,9.5,3.7,9.5,11.1c0,4.3-3.3,6.7-7,6.7c-1.8,0-3.5-0.3-5.1-1.2c-0.1-1.4-0.3-2.7-0.4-4.1H-152.8z"></path>
			</g>
			<g id="g320" transform="translate(253.4753,63.4612)">
				<path id="path322" inkscape:connector-curvature="0" class="st2" d="M-231,84.5c-1.4-1-2.8-2.2-2.8-4.1c0-2.9,2.3-4.7,5.2-4.7      c2.2,0,4.5,0.9,4.5,3.5c0,1.8-1.8,3.1-3.3,3.8c2.4,1.2,4.4,3.1,6,5.2c1-1.5,2.8-3.4,2.8-5.3c0-1.1-0.9-1.2-2.1-1.2      c-0.2,0-0.2-0.3-0.2-0.5V81c0-0.2,0-0.3,0.3-0.3c1.1,0,2.8,0.2,4.4,0.2c1.2,0,2.4-0.2,3.5-0.2c0.2,0,0.2,0.1,0.2,0.2v0.7      c0,0.2-0.1,0.3-0.4,0.3c-1.6,0-2.3,0.4-3.4,1.7c-1.4,1.9-2.9,3.8-4.3,5.7c1.1,1.9,2.4,4.7,5.1,4.7c1.5,0,2-0.5,2.9-1.6      c0.3,0.2,0.6,0.3,0.9,0.5c-0.2,0.3-0.3,0.7-0.5,1c-1.1,1.7-3,2.8-5.2,2.8c-1,0-1.7-0.1-2.7-0.4c-1.1-0.2-1.2-0.4-1.9-1.8      c-0.4-0.8-0.7-1.5-1-2.3c-2.2,2.6-3.6,4.5-7.4,4.5c-3.5,0-6.1-2-6.1-5.5C-236.3,88-233.8,85.9-231,84.5 M-232.7,89.2      c0,2.6,2.3,4.6,5,4.6c1.9,0,3.2-1.6,4.3-2.8c-1.6-2.5-4.2-4.3-6.7-5.8C-231.8,86.1-232.7,87.3-232.7,89.2 M-226.9,80.1      c0-1.7-0.4-3.3-2.2-3.3c-1.2,0-1.8,1.1-1.8,2.2c0,1.6,1.6,2.6,2.8,3.5C-227.3,81.8-226.9,81.2-226.9,80.1"></path>
			</g>
			<g id="g324" transform="translate(266.1646,66.271)">
				<path id="path326" inkscape:connector-curvature="0" class="st2" d="M-212.1,74.7c0-2.6-0.3-3-1.1-3h-0.7      c-0.5,0-0.7-0.2-0.7-0.5V71c0-0.2,0.1-0.4,0.2-0.5c0.9-0.6,6.6-1,8-1c6.8,0,13,2.8,13,12.2c0,7.8-5.6,11.7-11.5,11.7      c-2.4,0-4.8-0.2-5.9-0.2c-1.1,0-2.6,0.2-3.3,0.2c-0.3,0-0.5,0-0.5-0.3v-0.6c0-0.3,0.1-0.4,0.4-0.4c1.5,0,2.2-0.6,2.2-2.8V74.7z       M-208.4,88.9c0,2.3,1.5,3,3.6,3c4.7,0,7.5-4.8,7.5-10.1c0-5.8-2.6-10.8-7.8-10.8c-1.6,0-3.3,0.1-3.3,2.3V88.9z"></path>
			</g>
			<g id="g328" transform="translate(277.218,60.4791)">
				<path id="path330" inkscape:connector-curvature="0" class="st2" d="M-195.5,94.9c0,2.6,0.9,3,2.1,3c0.2,0,0.2,0.1,0.2,0.2v0.7      c0,0.2-0.1,0.2-0.3,0.2c-1.1,0-2.2-0.2-3.3-0.2c-1.2,0-3.7,0.2-4.7,0.2c-0.3,0-0.4,0-0.4-0.2v-0.6c0-0.1,0.1-0.4,0.3-0.4      c2.1-0.2,2.3-0.6,2.3-3.4V82.8c0-3.1-0.2-3.9-1.5-3.9h-0.9c-0.1,0-0.2-0.1-0.2-0.2V78c0-0.2,0.1-0.3,0.2-0.3      c1.2,0,3.3,0.2,5.4,0.2c3.1-0.2,2.1-0.1,4.5-0.2c1.8,0,5.5,1.1,5.5,5.1c0,2.7-2.2,4-4.4,4.4c1.1,0.9,2,2.3,2.7,3.5l2.8,4.9      c0.7,1.3,1.6,2.2,3.1,2.2c0.1,0,0.2,0.1,0.2,0.2v1c-1.1,0-2.2-0.2-3.3-0.2c-0.7,0-1.4,0.2-2,0.2c-0.6,0-0.9-0.5-1.7-2l-3.6-6.9      c-0.7-1.3-1-1.8-3.1-1.8V94.9z M-195.5,87c0.4,0,0.7,0,1.1,0c2.3,0,4.2-1.3,4.2-3.9c0-2.3-1.1-4-3.5-4c-1.7,0-1.8,1.1-1.8,2.5      V87z"></path>
			</g>
			<g id="g332" transform="translate(287.7178,67.5919)">
				<path id="path334" inkscape:connector-curvature="0" class="st2" d="M-179.9,70.1c6,0,11.1,4.3,11.1,10.7      c0,7.3-5.3,11.8-11.7,11.8c-5.6,0-10.4-4.3-10.4-10.9C-190.8,74.7-185.9,70.1-179.9,70.1 M-179.4,91c4.4,0,6.7-3.8,6.7-8.3      c0-5.3-2-11.1-7.5-11.1c-5,0-6.6,3.8-6.6,8.7C-186.8,85-184.3,91-179.4,91"></path>
			</g>
			<g id="g336" transform="translate(294.1196,66.1747)">
				<path id="path338" inkscape:connector-curvature="0" class="st2" d="M-170.3,75c0-1.6-0.7-1.8-2-1.8c-0.2,0-0.4-0.1-0.4-0.2      v-0.7c0-0.2,0-0.3,0.2-0.3c0.4,0,2,0.2,3.9,0.2c1.9,0,3.5-0.2,4.2-0.2c0.2,0,0.4,0,0.4,0.2V73c0,0.2-0.3,0.2-0.6,0.2      c-1.3,0-2,0.5-2,1.8v15.3c0,1.7,0.9,1.9,2.3,1.9c0.2,0,0.3,0.1,0.3,0.3v0.6c0,0.3-0.1,0.3-0.4,0.3c-1.3,0-2.6-0.2-3.9-0.2      c-1.4,0-2.9,0.2-4.3,0.2c-0.1,0-0.2-0.1-0.2-0.2v-0.8c0-0.2,0.1-0.2,0.4-0.2c1.3,0,2.1-0.3,2.1-1.9V75z"></path>
			</g>
			<g id="g340" transform="translate(301.5952,60.4051)">
				<path id="path342" inkscape:connector-curvature="0" class="st2" d="M-159.1,95.2c0,2.2,0.7,2.9,2.3,2.9c0.2,0,0.4,0.1,0.4,0.3      V99c0,0.2-0.1,0.2-0.4,0.2c-0.7,0-3.2-0.2-4.7-0.2c-1.7,0-2.6,0.2-3.4,0.2c-0.3,0-0.5,0-0.5-0.2v-0.6c0-0.2,0.1-0.4,0.2-0.4      c2,0,2.4-0.5,2.4-2.7V79.3h-3.3c-1.6,0-2.2,2-2.7,2.8c-0.1,0.2-0.2,0.2-0.3,0.2c-0.7,0-0.8-0.1-0.8-0.5c0-0.2,0.6-3.7,0.7-5.2      c0-0.2,0.1-0.2,0.2-0.2h0.9c0.3,0.7,0.9,1.3,1.9,1.3h10.3c1.7,0,2.5-0.5,2.7-1.3h0.7c0.3,0,0.4,0.1,0.4,0.4      c0,0.3-0.6,2.5-0.7,4.9c0,0.2,0,0.3-0.2,0.3c-0.3,0-1.1-0.1-1.1-0.3c0-0.2,0-0.5,0-1.1c0-1.2-1.2-1.3-2-1.3h-3V95.2z"></path>
			</g>
			<g id="g344" transform="translate(305.6266,60.7239)">
				<path id="path346" inkscape:connector-curvature="0" class="st2" d="M-153.1,94.1c0.7,1.9,1.7,4,4.5,4c2.2,0,4-1.2,4-3.5      c0-5.3-9.5-4-9.5-11.1c0-4.2,3-6.5,6.5-6.5c1.8,0,4.2,0.9,4.7,1.7v3.8h-1.2c-0.4-2.4-1.5-4.1-3.7-4.1c-1.9,0-3.4,1.1-3.4,3.3      c0,5.2,9.5,3.7,9.5,11.1c0,4.3-3.3,6.7-7,6.7c-1.8,0-3.5-0.3-5.1-1.2c-0.1-1.4-0.3-2.7-0.4-4.1H-153.1z"></path>
			</g>
			<g id="g348" transform="translate(251.8627,55.0272)">
				<path id="path350" inkscape:connector-curvature="0" class="st2" d="M-233.4,114c0-1.8-0.7-2-1.9-2c-0.2,0-0.4-0.1-0.4-0.2V111      c0-0.2,0-0.3,0.2-0.3c0.4,0,1.8,0.2,3.6,0.2c1.7,0,3.2-0.2,3.9-0.2c0.2,0,0.3,0,0.3,0.2v0.9c0,0.2-0.2,0.2-0.5,0.2      c-1.2,0-1.8,0.5-1.8,2v16.6c0,1.9,0.8,2.1,2.1,2.1c0.2,0,0.3,0.1,0.3,0.3v0.7c0,0.3-0.1,0.4-0.3,0.4c-1.2,0-2.4-0.2-3.6-0.2      c-1.3,0-2.7,0.2-4,0.2c-0.1,0-0.2-0.1-0.2-0.2v-0.9c0-0.2,0.1-0.3,0.4-0.3c1.2,0,2-0.3,2-2.1V114z"></path>
			</g>
			<g id="g352" transform="translate(258.2463,54.0803)">
				<path id="path354" inkscape:connector-curvature="0" class="st2" d="M-223.9,117.3c0.9,1.3,1.8,2.5,2.7,3.8l5.5,7.5      c0.2,0.2,0.3,0.4,0.3,0.4c0.1,0,0.1-1.4,0.1-2.1v-9.2c0-1.9-0.1-2.6-1.9-2.6c-0.2,0-0.5-0.1-0.5-0.4v-0.5c0-0.3,0.2-0.3,0.4-0.3      c1.3,0,2.5,0.1,3.3,0.1c1.1,0,1.7-0.1,2.4-0.1c0.2,0,0.3,0,0.3,0.3v0.6c0,0.2-0.2,0.3-0.9,0.3c-1.3,0.1-1.7,0.7-1.6,3.7v11.5      c0,2.3,0,4.1,0,5c0,0.2,0,0.2-0.3,0.2c-0.9,0-1,0-1.4-0.4c-0.7-0.9-1.1-1.4-1.5-2l-10.3-14.1c-0.3-0.4-0.5-0.8-0.7-0.8      c-0.2,0-0.1,1.2-0.1,1.3v10.8c0,3.2,0.5,3.4,2,3.4c0.3,0,0.5,0,0.5,0.3v0.7c0,0.2-0.1,0.3-0.4,0.3c-1.1,0-1.5-0.1-2.4-0.1      c-1,0-2.2,0.1-3.4,0.1c-0.4,0-0.5-0.1-0.5-0.4v-0.5c0-0.2,0.1-0.3,0.3-0.3c1.5,0,2.4-0.1,2.4-3.1v-10.5c0-4.9-0.3-5.2-2.9-5.2      c-0.2,0-0.3-0.1-0.3-0.3v-0.6c0-0.1,0.1-0.3,0.3-0.3c0.9,0,1.8,0.1,2.6,0.1c1.1,0,2.1-0.1,3.2-0.1c0.3,0,0.5,0.5,0.6,0.7      L-223.9,117.3z"></path>
			</g>
			<g id="g356" transform="translate(264.6808,53.7789)">
				<path id="path358" inkscape:connector-curvature="0" class="st2" d="M-214.3,118.3c0-2.3-0.3-2.7-1-2.7h-0.7      c-0.5,0-0.6-0.1-0.6-0.5v-0.2c0-0.2,0.1-0.3,0.2-0.4c0.9-0.6,6.1-0.9,7.3-0.9c6.3,0,12,2.6,12,11c0,7.1-5.2,10.6-10.6,10.6      c-2.2,0-4.4-0.1-5.5-0.1c-1,0-2.4,0.1-3.1,0.1c-0.3,0-0.4,0-0.4-0.2v-0.6c0-0.2,0.1-0.4,0.3-0.4c1.4,0,2-0.5,2-2.6V118.3z       M-210.9,131.2c0,2.1,1.4,2.7,3.3,2.7c4.4,0,6.9-4.3,6.9-9.2c0-5.2-2.4-9.8-7.2-9.8c-1.5,0-3,0.1-3,2.1V131.2z"></path>
			</g>
			<g id="g360" transform="translate(273.2094,54.2711)">
				<path id="path362" inkscape:connector-curvature="0" class="st2" d="M-201.5,116.6c0-1.6-0.7-1.8-1.9-1.8      c-0.2,0-0.4-0.1-0.4-0.2v-0.7c0-0.2,0-0.3,0.2-0.3c0.4,0,1.8,0.1,3.6,0.1c1.7,0,3.2-0.1,3.9-0.1c0.2,0,0.3,0,0.3,0.2v0.8      c0,0.1-0.2,0.2-0.5,0.2c-1.2,0-1.8,0.5-1.8,1.8v15.1c0,1.7,0.8,1.9,2.1,1.9c0.2,0,0.3,0.1,0.3,0.3v0.6c0,0.3-0.1,0.3-0.3,0.3      c-1.2,0-2.4-0.1-3.6-0.1c-1.3,0-2.7,0.1-4,0.1c-0.1,0-0.2-0.1-0.2-0.2v-0.8c0-0.2,0.1-0.2,0.4-0.2c1.2,0,2-0.3,2-1.9V116.6z"></path>
			</g>
			<g id="g364" transform="translate(278.6524,48.6711)">
				<path id="path366" inkscape:connector-curvature="0" class="st2" d="M-193.4,136.1c0,2.5,0.8,3,2,3c0.2,0,0.2,0.1,0.2,0.2v0.7      c0,0.2-0.1,0.2-0.3,0.2c-1,0-2-0.1-3.1-0.1c-1.1,0-3.4,0.1-4.3,0.1c-0.3,0-0.3,0-0.3-0.2v-0.6c0-0.1,0-0.4,0.3-0.4      c1.9-0.1,2.1-0.5,2.1-3.3v-11.6c0-3-0.2-3.9-1.4-3.9h-0.8c-0.1,0-0.2-0.1-0.2-0.2v-0.7c0-0.2,0.1-0.3,0.2-0.3      c1.1,0,3,0.1,4.9,0.1c2.9-0.1,2-0.1,4.1-0.1c1.6,0,5.1,1.1,5.1,5.1c0,2.6-2,4-4.1,4.4c1,0.9,1.8,2.2,2.5,3.5l2.6,4.9      c0.7,1.3,1.5,2.2,2.9,2.2c0.1,0,0.2,0.1,0.2,0.2v1c-1,0-2-0.1-3.1-0.1c-0.6,0-1.3,0.1-1.8,0.1c-0.6,0-0.8-0.5-1.5-2l-3.3-6.8      c-0.7-1.3-0.9-1.8-2.8-1.8V136.1z M-193.4,128.3c0.3,0,0.7,0,1,0c2.1,0,3.8-1.2,3.8-3.9c0-2.2-1-4-3.2-4c-1.6,0-1.7,1.1-1.7,2.5      V128.3z"></path>
			</g>
			<g id="g368" transform="translate(286.333,48.4907)">
				<path id="path370" inkscape:connector-curvature="0" class="st2" d="M-181.9,136.8c0,1.6,0.3,2.4,2,2.4h3.5      c1.1,0,1.3-0.5,1.9-1.5l0.8-1.4c0.2-0.4,0.3-0.4,0.5-0.4c0.2,0,0.9,0.1,0.9,0.4c0,0.1,0,0.3-0.1,0.4c-0.3,1.2-0.6,2.3-1,3.8      c-1.6,0-3.1,0-4.7-0.1c-1.6,0-3.1-0.1-4.7-0.1c-0.8,0-1.5,0-2.3,0.1c-0.8,0.1-1.5,0.1-2.3,0.1c-0.1,0-0.2-0.1-0.2-0.2v-0.5      c0-0.3,0.2-0.4,0.9-0.4c0.7-0.1,1.5-0.4,1.5-2.3v-11.9v-3c0-1.6-1-1.6-1.8-1.6c-0.3,0-0.4,0-0.4-0.3v-0.6c0-0.3,0.2-0.3,0.5-0.3      c1,0,3,0.1,4.3,0.1c2.7,0,5.5-0.1,8.2-0.1c0.2,0,0.2,0.2,0.2,0.4c0,0.7,0,1.3,0,2c0,0.6,0,1.3,0,1.9c0,0.2-0.1,0.3-0.3,0.3h-0.5      c-0.1,0-0.2-0.1-0.2-0.6c-0.2-2.3-0.8-2.7-2.5-2.7h-2.4c-1.4,0-1.7,0.2-1.7,2.6v5.2h1.7c1.9,0,2.7,0.1,3.1-2.3      c0-0.1,0.1-0.2,0.2-0.2h0.4c0.2,0,0.3,0.1,0.3,0.2c0,1.1,0,2.2,0,3.3c0,0.8,0,1.8,0,2.7c0,0.3-0.1,0.5-0.2,0.5h-0.6      c-0.2,0-0.2-0.1-0.2-0.2c0-0.5,0-1.1-0.2-1.7c-0.3-0.8-1-0.8-2.1-0.8h-2.4V136.8z"></path>
			</g>
			<g id="g372" transform="translate(297.6186,47.4084)">
				<path id="path374" inkscape:connector-curvature="0" class="st2" d="M-165.1,140.6c-2,1-4,1.5-6.1,1.5c-6,0-10.8-4-10.8-11.4      c0-6.6,5.5-10.7,10.6-10.7c1.9,0,4,0.5,5.7,1.6c0.3,0.2,0.5,0.4,0.5,0.5c0.2,1.3,0.4,3.6,0.4,3.8c0,0.1,0,0.1-0.1,0.2l-0.8,0.2      c-1.4-2.8-2.4-4.9-5.5-4.9c-4.5,0-7,4.5-7,9.4c0,4.9,2.8,9.7,7.2,9.7c2.9,0,4.1-1,5.4-4c0.1-0.2,0.2-0.8,0.4-0.8      c0.2,0,1,0.2,1,0.5c0,0.1,0,0.4-0.1,0.7L-165.1,140.6z"></path>
			</g>
			<g id="g376" transform="translate(302.4703,48.599)">
				<path id="path378" inkscape:connector-curvature="0" class="st2" d="M-157.8,136.4c0,2.2,0.7,2.8,2.1,2.8c0.2,0,0.4,0.1,0.4,0.3      v0.7c0,0.2-0.1,0.2-0.3,0.2c-0.6,0-3-0.1-4.4-0.1c-1.6,0-2.4,0.1-3.1,0.1c-0.3,0-0.5,0-0.5-0.2v-0.6c0-0.2,0-0.4,0.2-0.4      c1.9,0,2.2-0.5,2.2-2.6v-15.8h-3.1c-1.5,0-2.1,1.9-2.5,2.8c-0.1,0.1-0.2,0.2-0.3,0.2c-0.6,0-0.7-0.1-0.7-0.5      c0-0.2,0.5-3.6,0.6-5.1c0-0.1,0.1-0.2,0.2-0.2h0.8c0.3,0.7,0.8,1.3,1.7,1.3h9.5c1.6,0,2.3-0.5,2.5-1.3h0.7      c0.3,0,0.4,0.1,0.4,0.4c0,0.3-0.5,2.5-0.7,4.9c0,0.2,0,0.3-0.2,0.3c-0.3,0-1-0.1-1-0.3c0-0.2,0-0.5,0-1c0-1.2-1.1-1.3-1.9-1.3      h-2.8V136.4z"></path>
			</g>
			<g id="g380" transform="translate(306.0652,48.9118)">
				<path id="path382" inkscape:connector-curvature="0" class="st2" d="M-152.4,135.3c0.6,1.9,1.6,3.9,4.1,3.9      c2.1,0,3.7-1.2,3.7-3.4c0-5.2-8.8-4-8.8-11c0-4.1,2.7-6.3,6-6.3c1.6,0,3.9,0.9,4.3,1.6v3.7h-1.1c-0.3-2.4-1.4-4-3.4-4      c-1.7,0-3.1,1.1-3.1,3.3c0,5.1,8.8,3.6,8.8,10.9c0,4.2-3.1,6.6-6.4,6.6c-1.6,0-3.3-0.3-4.7-1.2c-0.1-1.3-0.3-2.7-0.4-4H-152.4z"></path>
			</g>
			<g id="g384" transform="translate(279.4497,110.2951)">
				<path id="path386" inkscape:connector-curvature="0" class="st2" d="M-192.2-79c0,0,5.1,11.6,4.9,16.1c0,0,3.8-5.8-1.9-16.8      c0,0-3.7-8.1-0.8-12.9c0,0,2.1-4.7,7-5.9c0,0,0.4,0.2-0.3,1c0,0-3.2,5,1.3,9.4c0,0,5.8,6.3,5.4,11.8c0,0,0.6,9.1-9.4,17.9      l-2.4,0.1c0,0-4.1-6-6.3-10.1c0,0-3.5-6.3-1.9-11.3c0,0,1.4-5.6,3.6-7.5c0,0,0.3-0.1,0.2,0.2C-192.8-87-193.2-81.3-192.2-79"></path>
			</g>
			<g id="g388" transform="translate(289.6641,97.4424)">
				<path id="path390" inkscape:connector-curvature="0" class="st2" d="M-176.9-34.1c1.1,2.8,1.7,5.8,1.7,8.9      c0,13.2-10.4,23.9-23.3,23.9l-2.7-0.2c-13.5-0.7-22.3-11.1-22.3-11.1c-8.9-10.2-12.2-24.6-12.2-24.6h17.1h5.8      c-2.5,3.3-4,7.5-4,12c0,9.1,6,16.7,14.2,18.9c1.5,0.4,3.2,0.6,4.8,0.6c10.5,0,19-8.8,19-19.6c0-3.2-0.8-6.2-2.1-8.9      c-0.5-0.9-1-1.8-1.6-2.6h4.4L-176.9-34.1z"></path>
			</g>
			<g id="g392" transform="translate(282.3563,42.4122)">
				<path id="path394" inkscape:connector-curvature="0" class="st3" d="M-187.9,158c0,2.5-2,4.5-4.5,4.5s-4.5-2-4.5-4.5      c0-2.5,2-4.5,4.5-4.5S-187.9,155.5-187.9,158"></path>
			</g>
			<g id="g396" transform="translate(286.3784,93.614)">
				<path id="path398" inkscape:connector-curvature="0" class="st3" d="M-181.9-20.8c0,6.9-5.7,12.5-12.8,12.5      c-7.1,0-12.8-5.6-12.8-12.5c0-6.9,5.7-12.5,12.8-12.5C-187.6-33.3-181.9-27.7-181.9-20.8"></path>
			</g>
		</g>
	</g>
</g>
</svg>